<?xml version="1.0" encoding="UTF-8"?>
<svg width="66px" height="66px" viewBox="0 0 66 66" version="1.1" xmlns="http://www.w3.org/2000/svg" xmlns:xlink="http://www.w3.org/1999/xlink">
    <!-- Generator: Sketch 41.2 (35397) - http://www.bohemiancoding.com/sketch -->
    <title>Group 4</title>
    <desc>Created with Sketch.</desc>
    <defs></defs>
    <g id="Page-4" stroke="none" stroke-width="1" fill="none" fill-rule="evenodd">
        <g id="Desktop-HD" transform="translate(-234.000000, -300.000000)">
            <g id="Group-4" transform="translate(234.000000, 300.000000)">
                <g id="Group-6">
                    <rect id="Rectangle" fill="#7FCCF7" x="0" y="0" width="30" height="30" rx="2"></rect>
                    <g id="Group-5" transform="translate(3.000000, 7.000000)">
                        <path d="M11.749,15.5 L7.645,10.315 C7.293,9.87 6.641,9.807 6.211,10.177 L0,15.5 L11.749,15.5 Z" id="Fill-3" fill="#A1D7FB"></path>
                        <path d="M23.7295,15.5 L17.5655,7.338 C17.2205,6.882 16.5655,6.807 16.1265,7.173 L6.1555,15.5 L23.7295,15.5 Z" id="Fill-5" fill="#D2ECFF"></path>
                        <path d="M5.4324,2 C5.4324,3.105 4.5374,4 3.4324,4 C2.3274,4 1.4324,3.105 1.4324,2 C1.4324,0.895 2.3274,0 3.4324,0 C4.5374,0 5.4324,0.895 5.4324,2" id="Fill-7" fill="#D3EDFF"></path>
                    </g>
                </g>
                <g id="Group-6" transform="translate(36.000000, 0.000000)">
                    <rect id="Rectangle" fill="#7FCCF7" x="0" y="0" width="30" height="30" rx="2"></rect>
                    <g id="Group-5" transform="translate(3.000000, 7.000000)">
                        <path d="M11.749,15.5 L7.645,10.315 C7.293,9.87 6.641,9.807 6.211,10.177 L0,15.5 L11.749,15.5 Z" id="Fill-3" fill="#A1D7FB"></path>
                        <path d="M23.7295,15.5 L17.5655,7.338 C17.2205,6.882 16.5655,6.807 16.1265,7.173 L6.1555,15.5 L23.7295,15.5 Z" id="Fill-5" fill="#D2ECFF"></path>
                        <path d="M5.4324,2 C5.4324,3.105 4.5374,4 3.4324,4 C2.3274,4 1.4324,3.105 1.4324,2 C1.4324,0.895 2.3274,0 3.4324,0 C4.5374,0 5.4324,0.895 5.4324,2" id="Fill-7" fill="#D3EDFF"></path>
                    </g>
                </g>
                <g id="Group-6" transform="translate(0.000000, 36.000000)">
                    <rect id="Rectangle" fill="#7FCCF7" x="0" y="0" width="30" height="30" rx="2"></rect>
                    <g id="Group-5" transform="translate(3.000000, 7.000000)">
                        <path d="M11.749,15.5 L7.645,10.315 C7.293,9.87 6.641,9.807 6.211,10.177 L0,15.5 L11.749,15.5 Z" id="Fill-3" fill="#A1D7FB"></path>
                        <path d="M23.7295,15.5 L17.5655,7.338 C17.2205,6.882 16.5655,6.807 16.1265,7.173 L6.1555,15.5 L23.7295,15.5 Z" id="Fill-5" fill="#D2ECFF"></path>
                        <path d="M5.4324,2 C5.4324,3.105 4.5374,4 3.4324,4 C2.3274,4 1.4324,3.105 1.4324,2 C1.4324,0.895 2.3274,0 3.4324,0 C4.5374,0 5.4324,0.895 5.4324,2" id="Fill-7" fill="#D3EDFF"></path>
                    </g>
                </g>
                <g id="Group-6" transform="translate(36.000000, 36.000000)">
                    <rect id="Rectangle" fill="#7FCCF7" x="0" y="0" width="30" height="30" rx="2"></rect>
                    <g id="Group-5" transform="translate(3.000000, 7.000000)">
                        <path d="M11.749,15.5 L7.645,10.315 C7.293,9.87 6.641,9.807 6.211,10.177 L0,15.5 L11.749,15.5 Z" id="Fill-3" fill="#A1D7FB"></path>
                        <path d="M23.7295,15.5 L17.5655,7.338 C17.2205,6.882 16.5655,6.807 16.1265,7.173 L6.1555,15.5 L23.7295,15.5 Z" id="Fill-5" fill="#D2ECFF"></path>
                        <path d="M5.4324,2 C5.4324,3.105 4.5374,4 3.4324,4 C2.3274,4 1.4324,3.105 1.4324,2 C1.4324,0.895 2.3274,0 3.4324,0 C4.5374,0 5.4324,0.895 5.4324,2" id="Fill-7" fill="#D3EDFF"></path>
                    </g>
                </g>
            </g>
        </g>
    </g>
</svg>