<?xml version="1.0" encoding="UTF-8"?>
<svg width="66px" height="66px" viewBox="0 0 66 66" version="1.1" xmlns="http://www.w3.org/2000/svg" xmlns:xlink="http://www.w3.org/1999/xlink">
    <!-- Generator: Sketch 41.2 (35397) - http://www.bohemiancoding.com/sketch -->
    <title>Group 2</title>
    <desc>Created with Sketch.</desc>
    <defs></defs>
    <g id="Page-4" stroke="none" stroke-width="1" fill="none" fill-rule="evenodd">
        <g id="Desktop-HD" transform="translate(-360.000000, -300.000000)">
            <g id="Group-2" transform="translate(360.000000, 300.000000)">
                <g id="Group-3">
                    <rect id="Rectangle" fill="#7FCCF7" x="0" y="0" width="18" height="18" rx="2"></rect>
                    <g id="Group-5" transform="translate(3.000000, 5.000000)">
                        <path d="M5.8745,7.75 L3.8225,5.1575 C3.6465,4.935 3.3205,4.9035 3.1055,5.0885 L0,7.75 L5.8745,7.75 Z" id="Fill-3" fill="#A1D7FB"></path>
                        <path d="M11.86475,7.75 L8.78275,3.669 C8.61025,3.441 8.28275,3.4035 8.06325,3.5865 L3.07775,7.75 L11.86475,7.75 Z" id="Fill-5" fill="#D2ECFF"></path>
                        <path d="M2.7162,1 C2.7162,1.5525 2.2687,2 1.7162,2 C1.1637,2 0.7162,1.5525 0.7162,1 C0.7162,0.4475 1.1637,0 1.7162,0 C2.2687,0 2.7162,0.4475 2.7162,1" id="Fill-7" fill="#D3EDFF"></path>
                    </g>
                    <rect id="Rectangle-20-Copy" fill="#7FCCF7" x="24" y="2" width="42" height="2" rx="1"></rect>
                    <rect id="Rectangle-20-Copy-2" fill="#7FCCF7" x="24" y="6" width="42" height="2" rx="1"></rect>
                    <rect id="Rectangle-20-Copy-3" fill="#7FCCF7" x="24" y="10" width="24" height="2" rx="1"></rect>
                </g>
                <g id="Group-3" transform="translate(0.000000, 24.000000)">
                    <rect id="Rectangle" fill="#7FCCF7" x="0" y="0" width="18" height="18" rx="2"></rect>
                    <g id="Group-5" transform="translate(3.000000, 5.000000)">
                        <path d="M5.8745,7.75 L3.8225,5.1575 C3.6465,4.935 3.3205,4.9035 3.1055,5.0885 L0,7.75 L5.8745,7.75 Z" id="Fill-3" fill="#A1D7FB"></path>
                        <path d="M11.86475,7.75 L8.78275,3.669 C8.61025,3.441 8.28275,3.4035 8.06325,3.5865 L3.07775,7.75 L11.86475,7.75 Z" id="Fill-5" fill="#D2ECFF"></path>
                        <path d="M2.7162,1 C2.7162,1.5525 2.2687,2 1.7162,2 C1.1637,2 0.7162,1.5525 0.7162,1 C0.7162,0.4475 1.1637,0 1.7162,0 C2.2687,0 2.7162,0.4475 2.7162,1" id="Fill-7" fill="#D3EDFF"></path>
                    </g>
                    <rect id="Rectangle-20-Copy" fill="#7FCCF7" x="24" y="2" width="42" height="2" rx="1"></rect>
                    <rect id="Rectangle-20-Copy-2" fill="#7FCCF7" x="24" y="6" width="42" height="2" rx="1"></rect>
                    <rect id="Rectangle-20-Copy-3" fill="#7FCCF7" x="24" y="10" width="24" height="2" rx="1"></rect>
                </g>
                <g id="Group-3" transform="translate(0.000000, 48.000000)">
                    <rect id="Rectangle" fill="#7FCCF7" x="0" y="0" width="18" height="18" rx="2"></rect>
                    <g id="Group-5" transform="translate(3.000000, 5.000000)">
                        <path d="M5.8745,7.75 L3.8225,5.1575 C3.6465,4.935 3.3205,4.9035 3.1055,5.0885 L0,7.75 L5.8745,7.75 Z" id="Fill-3" fill="#A1D7FB"></path>
                        <path d="M11.86475,7.75 L8.78275,3.669 C8.61025,3.441 8.28275,3.4035 8.06325,3.5865 L3.07775,7.75 L11.86475,7.75 Z" id="Fill-5" fill="#D2ECFF"></path>
                        <path d="M2.7162,1 C2.7162,1.5525 2.2687,2 1.7162,2 C1.1637,2 0.7162,1.5525 0.7162,1 C0.7162,0.4475 1.1637,0 1.7162,0 C2.2687,0 2.7162,0.4475 2.7162,1" id="Fill-7" fill="#D3EDFF"></path>
                    </g>
                    <rect id="Rectangle-20-Copy" fill="#7FCCF7" x="24" y="2" width="42" height="2" rx="1"></rect>
                    <rect id="Rectangle-20-Copy-2" fill="#7FCCF7" x="24" y="6" width="42" height="2" rx="1"></rect>
                    <rect id="Rectangle-20-Copy-3" fill="#7FCCF7" x="24" y="10" width="24" height="2" rx="1"></rect>
                </g>
            </g>
        </g>
    </g>
</svg>