<?xml version="1.0" encoding="iso-8859-1"?>
<!-- Generator: Adobe Illustrator 19.0.0, SVG Export Plug-In . SVG Version: 6.00 Build 0)  -->
<svg version="1.1" id="Layer_1" xmlns="http://www.w3.org/2000/svg" xmlns:xlink="http://www.w3.org/1999/xlink" x="0px" y="0px"
	 viewBox="0 0 512 512" style="enable-background:new 0 0 512 512;" xml:space="preserve">
<circle style="fill:#E03A00;" cx="256" cy="256" r="256"/>
<g>
	<path style="fill:#940030;" d="M510.743,230.564l-76.866-76.865l-10.914,100.898l-72.978-72.076l-98.251,85.306L133.282,151.245
		l-4.544,20.733l-20.994-20.994l-2.586,52.579l5.415-1.414l-7.713,3.856l3.448,106.02l-10.647,41.288l158.011,158.656
		c0.776,0.007,1.55,0.029,2.327,0.029c141.384,0,256-114.616,256-256C512,247.415,511.569,238.932,510.743,230.564z"/>
	<polygon style="fill:#940030;" points="106.165,174.689 83.609,152.135 78.726,181.584 90.074,201.123 102.572,203.709 	"/>
</g>
<circle style="fill:#FFFFFF;" cx="256" cy="256" r="119.329"/>
<path style="fill:#DBDBDB;" d="M256,136.67c65.905,0,119.33,53.426,119.33,119.33S321.905,375.33,256,375.33V136.67z"/>
<circle style="fill:#E0E0E0;" cx="256" cy="256" r="83.523"/>
<path style="fill:#BABABA;" d="M256,172.468c46.133,0,83.532,37.398,83.532,83.532S302.133,339.532,256,339.532V172.468z"/>
<path style="fill:#FFFFFF;" d="M129.786,149.857c-2.857,0-5.172,2.315-5.172,5.172v27.857c0,8.754-6.485,16.003-14.901,17.248
	v-45.104c0-2.857-2.315-5.172-5.172-5.172s-5.172,2.315-5.172,5.172v45.104c-8.413-1.245-14.898-8.494-14.898-17.248v-27.857
	c0-2.857-2.315-5.172-5.172-5.172s-5.172,2.315-5.172,5.172v27.857c0,14.465,11.109,26.372,25.243,27.67v121.173
	c0,2.857,2.315,5.172,5.172,5.172s5.172-2.315,5.172-5.172V210.556c14.134-1.296,25.245-13.205,25.245-27.67v-27.857
	C134.958,152.171,132.642,149.857,129.786,149.857z"/>
<path style="fill:#E0E0E0;" d="M129.786,149.857c-2.857,0-5.172,2.315-5.172,5.172v27.857c0,8.754-6.485,16.003-14.901,17.248
	v-45.104c0-2.843-2.293-5.144-5.13-5.168v187.035c2.838-0.022,5.13-2.326,5.13-5.168V210.554
	c14.134-1.296,25.245-13.205,25.245-27.67v-27.855C134.958,152.171,132.642,149.857,129.786,149.857z"/>
<path style="fill:#FFFFFF;" d="M429.609,152.228c-11.417,14.714-40.617,58.618-22.93,103.619h27.2V153.698
	C433.878,151.423,431.004,150.43,429.609,152.228z"/>
<path style="fill:#E0E0E0;" d="M433.878,153.698c0-2.276-2.874-3.269-4.27-1.47c-2.336,3.01-5.418,7.258-8.688,12.469v91.15h12.957
	V153.698H433.878z"/>
<path style="fill:#FEE187;" d="M433.878,255.847v95.198c0,7.511-6.089,13.6-13.6,13.6l0,0c-7.511,0-13.6-6.089-13.6-13.6v-95.198
	H433.878z"/>
<path style="fill:#FFC61B;" d="M420.921,255.847v108.765c7.211-0.338,12.957-6.273,12.957-13.567v-95.198H420.921z"/>
<path style="fill:#FEE187;" d="M117.164,256v88.35c0,6.971-5.651,12.621-12.621,12.621l0,0c-6.971,0-12.621-5.651-12.621-12.621V256
	H117.164z"/>
<path style="fill:#FFC61B;" d="M104.584,256v100.969c6.951-0.022,12.579-5.663,12.579-12.619V256H104.584z"/>
<g>
</g>
<g>
</g>
<g>
</g>
<g>
</g>
<g>
</g>
<g>
</g>
<g>
</g>
<g>
</g>
<g>
</g>
<g>
</g>
<g>
</g>
<g>
</g>
<g>
</g>
<g>
</g>
<g>
</g>
</svg>
